/* XPM */
static char *gem_xpm[] = {
/* columns rows colors chars-per-pixel */
"64 64 10 1",
"  c #2d5a27",
". c #1a1a2e",
"X c #ff3366",
"o c #ff6699",
"O c #ffaacc",
"+ c #cc1144",
"@ c #990033",
"# c #ffffff",
"$ c #ffddee",
"% c #ff0055",
/* pixels */
"                                                                ",
"                                                                ",
"                                                                ",
"                                                                ",
"                                                                ",
"                                                                ",
"                                                                ",
"                                                                ",
"                                                                ",
"                                                                ",
"                              ..                                ",
"                             .XX.                               ",
"                            .XXXX.                              ",
"                           .XXXXXX.                             ",
"                          .XXXXXXXX.                            ",
"                         .XXXXXXXXXX.                           ",
"                        .XXXXXXXXXXXX.                          ",
"                       .XXXXXXXXXXXXXX.                         ",
"                      .XXXXXXXXXXXXXXXX.                        ",
"                     .XXXXXXXXXXXXXXXXXX.                       ",
"                    .XXXXXXXXXXXXXXXXXXXX.                      ",
"                   .XXXXXXXXXXXXXXXXXXXXXX.                     ",
"                  .XXXXXXXXXXXXXXXXXXXXXXXX.                    ",
"                 .XXXXXXXXXXXXXXXXXXXXXXXXXX.                   ",
"                .XXXXXXXXXXXXXXXXXXXXXXXXXXXX.                  ",
"               .XXXXXXXXXXXXXXXXXXXXXXXXXXXXXX.                 ",
"              .XXXXXXXXXXXXXXXXXXXXXXXXXXXXXXXX.                ",
"             .XXXXXXXXXXXXXXXXXXXXXXXXXXXXXXXXXX.               ",
"            .XXXXXXXX$$$$$$$$$$$$$$$$$XXXXXXXXXXX.              ",
"           .XXXXXXXX$################$XXXXXXXXXXXX.             ",
"          .XXXXXXXX$##################$XXXXXXXXXXXX.            ",
"         ............................................           ",
"          .oooooo$##################$oooooooooooooo.            ",
"           .ooooo$################$ooooooooooooooo.             ",
"            .oooooo$$$$$$$$$$$$$$$oooooooooooooooo.             ",
"             .oooooooooooooooooooooooooooooooooooo.             ",
"              .oooooooooooooooooooooooooooooooooo.              ",
"               .oooooooooooooooooooooooooooooooo.               ",
"                .oooooooooooooooooooooooooooooo.                ",
"                 .oooooooooooooooooooooooooooo.                 ",
"                  .oooooooooooooooooooooooooo.                  ",
"                   .oooooooooooooooooooooooo.                   ",
"                    .oooooooooooooooooooooo.                    ",
"                     .+++++++++++++++++++++.                    ",
"                      .+++++++++++++++++++.                     ",
"                       .+++++++++++++++++.                      ",
"                        .+++++++++++++++.                       ",
"                         .+++++++++++++.                        ",
"                          .+++++++++++.                         ",
"                           .+++++++++.                          ",
"                            .+++++++.                           ",
"                             .+++++.                            ",
"                              .+++.                             ",
"                               .+.                              ",
"                                .                               ",
"                                                                ",
"                                                                ",
"                                                                ",
"                                                                ",
"                                                                ",
"                                                                ",
"                                                                ",
"                                                                ",
"                                                                "
};
