/* XPM */
static char *ground_xpm[] = {
/* columns rows colors chars-per-pixel */
"64 64 6 1",
"  c #2d5a27",
". c #3d7a37",
"X c #4d9a47",
"o c #5dba57",
"O c #3a6a32",
"+ c #4a8a42",
/* pixels */
"..X.....XX....X......X..X....X.......X..XX.....X.....X...X.....X",
".XX..X.X..X..X.X....X..X.X..X.X.....X..X..X...X.X...X.X.X.X...X.",
"X..XX.X....XX...X..X....X.XX...X...X....XX...X...X.X...X...X.X..",
"....X...X.X..X...XX..X.X.X..X...X.X..X.X..X.X..X...X.X..X...X..X",
".X.X.X.X.X....X.X..XX.X.X....X.X.XX.X.X....X.XX.X.X.X....X.X.XX.",
"X.X...X...X..X...X.X...X..X.X...X.X...X..X...X.X...X..X.X...X.X.",
"...X.X.X.X.XX.X.X.X.X.X.XX.X.X.X.X.X.XX.X.X.X.X.X.XX.X.X.X.X.X.X",
".XX...X.X....X...X.X.X....X...X.X.X....X...X.X.X....X...X.X.X...",
"X..X.X...X..X.X.X...X..X.X.X.X...X..X.X.X.X...X..X.X.X.X...X..X.",
"..X.X.X.X.XX...X.X.X.XX...X.X.X.X.XX...X.X.X.X.XX...X.X.X.X.XX..",
".X...X.X....X.X...X....X.X...X.X....X.X...X.X....X.X...X.X....X.",
"X.X.X...X..X...X.X..X.X...X.X...X..X...X.X...X..X...X.X...X..X..",
"...X.X.X.XX.X.X.X.XX...X.X.X.X.XX.X.X.X.X.XX.X.X.X.X.X.XX.X.X.X.",
".X...X.X....X...X...X.X...X.X....X...X.X....X...X.X.X....X...X..",
"X.X.X...X..X.X.X.X.X...X.X...X..X.X.X...X..X.X.X...X..X.X.X.X..X",
"..X.X.X.XX...X...X.X.X.X.X.XX...X...X.X.XX...X.X.X.XX...X...X.XX",
".X...X....X.X.X.X...X...X....X.X.X.X....X.X.X...X....X.X.X.X....",
"X.X.X..X.X...X...X.X.X.X..X.X...X...X..X...X.X.X..X.X...X...X..X",
"...X.XX...X.X.X.X...X...XX...X.X.X.XX.X.X.X...X.XX...X.X.X.XX.X.",
".X.X...X.X...X...X.X.X.X..X.X...X....X...X.X.X...X.X...X.X....X.",
"X...X.X...X.X.X.X...X...X.X..X.X..X.X.X.X...X.X.X..X.X.X..X.X..X",
".X.X...X.X...X...X.X.X.X...XX...XX...X...X.X...X.XX...X.XX...XX.",
"X...X.X...X.X.X.X...X...X.X..X.X..X.X.X.X...X.X...X.X.X...X.X..X",
".X.X...X.X...X...X.X.X.X...XX...XX...X...X.X...X.X...X.X.X...XX.",
"X...X.X...X.X.X.X...X...X.X..X.X..X.X.X.X...X.X..X.X.X..X.X.X..X",
".X.X...X.X...X...X.X.X.X...XX...XX...X...X.X...XX...X.XX...X.XX.",
"X...X.X...X.X.X.X...X...X.X..X.X..X.X.X.X...X.X..X.X.X..X.X.X..X",
".X.X...X.X...X...X.X.X.X...XX...XX...X...X.X...X.XX...X.XX...XX.",
"X...X.X...X.X.X.X...X...X.X..X.X..X.X.X.X...X.X...X.X.X...X.X..X",
".X.X...X.X...X...X.X.X.X...XX...XX...X...X.X...X.X...X.X.X...XX.",
"X...X.X...X.X.X.X...X...X.X..X.X..X.X.X.X...X.X..X.X.X..X.X.X..X",
".X.X...X.X...X...X.X.X.X...XX...XX...X...X.X...XX...X.XX...X.XX.",
"X...X.X...X.X.X.X...X...X.X..X.X..X.X.X.X...X.X..X.X.X..X.X.X..X",
".X.X...X.X...X...X.X.X.X...XX...XX...X...X.X...X.XX...X.XX...XX.",
"X...X.X...X.X.X.X...X...X.X..X.X..X.X.X.X...X.X...X.X.X...X.X..X",
".X.X...X.X...X...X.X.X.X...XX...XX...X...X.X...X.X...X.X.X...XX.",
"X...X.X...X.X.X.X...X...X.X..X.X..X.X.X.X...X.X..X.X.X..X.X.X..X",
".X.X...X.X...X...X.X.X.X...XX...XX...X...X.X...XX...X.XX...X.XX.",
"X...X.X...X.X.X.X...X...X.X..X.X..X.X.X.X...X.X..X.X.X..X.X.X..X",
".X.X...X.X...X...X.X.X.X...XX...XX...X...X.X...X.XX...X.XX...XX.",
"X...X.X...X.X.X.X...X...X.X..X.X..X.X.X.X...X.X...X.X.X...X.X..X",
".X.X...X.X...X...X.X.X.X...XX...XX...X...X.X...X.X...X.X.X...XX.",
"X...X.X...X.X.X.X...X...X.X..X.X..X.X.X.X...X.X..X.X.X..X.X.X..X",
".X.X...X.X...X...X.X.X.X...XX...XX...X...X.X...XX...X.XX...X.XX.",
"X...X.X...X.X.X.X...X...X.X..X.X..X.X.X.X...X.X..X.X.X..X.X.X..X",
".X.X...X.X...X...X.X.X.X...XX...XX...X...X.X...X.XX...X.XX...XX.",
"X...X.X...X.X.X.X...X...X.X..X.X..X.X.X.X...X.X...X.X.X...X.X..X",
".X.X...X.X...X...X.X.X.X...XX...XX...X...X.X...X.X...X.X.X...XX.",
"X...X.X...X.X.X.X...X...X.X..X.X..X.X.X.X...X.X..X.X.X..X.X.X..X",
".X.X...X.X...X...X.X.X.X...XX...XX...X...X.X...XX...X.XX...X.XX.",
"X...X.X...X.X.X.X...X...X.X..X.X..X.X.X.X...X.X..X.X.X..X.X.X..X",
".X.X...X.X...X...X.X.X.X...XX...XX...X...X.X...X.XX...X.XX...XX.",
"X...X.X...X.X.X.X...X...X.X..X.X..X.X.X.X...X.X...X.X.X...X.X..X",
".X.X...X.X...X...X.X.X.X...XX...XX...X...X.X...X.X...X.X.X...XX.",
"X...X.X...X.X.X.X...X...X.X..X.X..X.X.X.X...X.X..X.X.X..X.X.X..X",
".X.X...X.X...X...X.X.X.X...XX...XX...X...X.X...XX...X.XX...X.XX.",
"X...X.X...X.X.X.X...X...X.X..X.X..X.X.X.X...X.X..X.X.X..X.X.X..X",
".X.X...X.X...X...X.X.X.X...XX...XX...X...X.X...X.XX...X.XX...XX.",
"X...X.X...X.X.X.X...X...X.X..X.X..X.X.X.X...X.X...X.X.X...X.X..X",
".X.X...X.X...X...X.X.X.X...XX...XX...X...X.X...X.X...X.X.X...XX.",
"X...X.X...X.X.X.X...X...X.X..X.X..X.X.X.X...X.X..X.X.X..X.X.X..X",
".X.X...X.X...X...X.X.X.X...XX...XX...X...X.X...XX...X.XX...X.XX.",
"X...X.X...X.X.X.X...X...X.X..X.X..X.X.X.X...X.X..X.X.X..X.X.X..X",
".X.X...X.X...X...X.X.X.X...XX...XX...X...X.X...X.XX...X.XX...XX."
};
