/* XPM */
static char *hero_xpm[] = {
/* columns rows colors chars-per-pixel */
"64 64 10 1",
"  c #2d5a27",
". c #1a1a2e",
"X c #ffcc66",
"o c #ffaa44",
"O c #ff8833",
"+ c #cc5522",
"@ c #4488cc",
"# c #66aaee",
"$ c #88ccff",
"% c #ffffff",
/* pixels */
"                                                                ",
"                                                                ",
"                                                                ",
"                                                                ",
"                                                                ",
"                                                                ",
"                                                                ",
"                                                                ",
"                          ..........                            ",
"                        ..XXXXXXXXXX..                          ",
"                       .XXXXXXXXXXXXXX.                         ",
"                      .XXXXXXXXXXXXXXXX.                        ",
"                     .XXXXXXXXXXXXXXXXXX.                       ",
"                     .XXXXXXXXXXXXXXXXXX.                       ",
"                    .XXXXXXXXXXXXXXXXXXXX.                      ",
"                    .XXX%%XXXXXXXX%%XXXX.                       ",
"                    .XXX%%XXXXXXXX%%XXXX.                       ",
"                    .XXXXXXXXXXXXXXXXXXXX.                      ",
"                    .XXXXXXXXXXXXXXXXXXXX.                      ",
"                    .XXXX..XXXXXX..XXXXX.                       ",
"                    .XXXXX......XXXXXXXX.                       ",
"                     .XXXXXXXXXXXXXXXXXX.                       ",
"                      .XXXXXXXXXXXXXXXX.                        ",
"                       .XXXXXXXXXXXXXX.                         ",
"                        ..XXXXXXXXXX..                          ",
"                          ..........                            ",
"                        @@@@@@@@@@@@@@                          ",
"                       @@@@@@@@@@@@@@@@                         ",
"                      @@@@############@@                        ",
"                      @@####$$$$$$####@@                        ",
"                      @@##$$$$$$$$$$##@@                        ",
"                      @@##$$$$$$$$$$##@@                        ",
"                      @@##$$$$$$$$$$##@@                        ",
"                      @@##$$$$$$$$$$##@@                        ",
"                      @@####$$$$$$####@@                        ",
"                      @@@@############@@                        ",
"                       @@@@@@@@@@@@@@@@                         ",
"                   .....@@@@@@@@@@@@@@.....                     ",
"                  .ooooo..@@@@@@@@@@..ooooo.                    ",
"                 .ooooooo.@@@@@@@@@@.ooooooo.                   ",
"                .oooooooo.@@@@@@@@@@.oooooooo.                  ",
"                .oooooooo.@@@@@@@@@@.oooooooo.                  ",
"                .oooooooo.@@@@@@@@@@.oooooooo.                  ",
"                .oooooooo.@@@@@@@@@@.oooooooo.                  ",
"                .oooooooo.@@@@@@@@@@.oooooooo.                  ",
"                 .ooooooo.          .ooooooo.                   ",
"                  .ooooo.            .ooooo.                    ",
"                   .....              .....                     ",
"                       @@@@@@@@@@@@@@@@                         ",
"                       @@@@@@@@@@@@@@@@                         ",
"                       @@@@@@  @@@@@@@@                         ",
"                       @@@@@@  @@@@@@@@                         ",
"                      .++++++  ++++++.                          ",
"                     .+++++++  +++++++.                         ",
"                    .++++++++  ++++++++.                        ",
"                    .++++++++  ++++++++.                        ",
"                    .++++++++  ++++++++.                        ",
"                     .+++++++  +++++++.                         ",
"                      .++++++  ++++++.                          ",
"                       ......  ......                           ",
"                                                                ",
"                                                                ",
"                                                                ",
"                                                                "
};
